<?xml version="1.0" encoding="iso-8859-1"?>
<!-- Generator: Adobe Illustrator 19.0.0, SVG Export Plug-In . SVG Version: 6.00 Build 0)  -->
<svg version="1.1" id="Capa_1" xmlns="http://www.w3.org/2000/svg" xmlns:xlink="http://www.w3.org/1999/xlink" x="0px" y="0px"
     viewBox="0 0 512 512" style="enable-background:new 0 0 512 512;" xml:space="preserve">
<path style="fill:#B1FFFF;" d="M38,103v287.61L176,168l106.35,171.55l80-129L474,390.61V103H38z M288.5,203
	c-17.949,0-32.5-14.551-32.5-32.5s14.551-32.5,32.5-32.5s32.5,14.551,32.5,32.5l0,0C321,188.449,306.449,203,288.5,203z"/>
    <g>
	<path style="fill:#304FFE;" d="M0,65v382h512V65H0z M22.37,431L176,183.18L329.63,431H22.37z M348.45,431l-56.69-91.45
		l70.59-113.87L489.63,431H348.45z M496,410.91L362.35,195.32l-80,129L176,152.82L16,410.91V81h480V410.91z"/>
        <path style="fill:#304FFE;" d="M288.5,211c22.368,0,40.5-18.132,40.5-40.5S310.868,130,288.5,130S248,148.132,248,170.5
		C248.028,192.856,266.144,210.972,288.5,211z M288.5,146c13.531,0,24.5,10.969,24.5,24.5S302.031,195,288.5,195
		S264,184.031,264,170.5C264.017,156.976,274.976,146.017,288.5,146z"/>
</g>
    <g>
</g>
    <g>
</g>
    <g>
</g>
    <g>
</g>
    <g>
</g>
    <g>
</g>
    <g>
</g>
    <g>
</g>
    <g>
</g>
    <g>
</g>
    <g>
</g>
    <g>
</g>
    <g>
</g>
    <g>
</g>
    <g>
</g>
</svg>
