<?xml version="1.0" encoding="iso-8859-1"?>
<!-- Generator: Adobe Illustrator 19.0.0, SVG Export Plug-In . SVG Version: 6.00 Build 0)  -->
<svg version="1.1" id="Layer_1" xmlns="http://www.w3.org/2000/svg" xmlns:xlink="http://www.w3.org/1999/xlink" x="0px" y="0px"
	 viewBox="0 0 511.996 511.996" style="enable-background:new 0 0 511.996 511.996;" xml:space="preserve">
<path style="fill:#285680;" d="M114.308,511.996C51.165,511.969,0,460.761,0.018,397.627c0.009-30.252,12.013-59.264,33.374-80.687
	l111.951-111.951c6.411-6.385,13.561-11.995,21.282-16.709c37.349-22.803,84.433-22.293,121.272,1.319
	c6.947,4.432,13.376,9.621,19.171,15.478c5.347,5.356,8.135,12.76,7.651,20.315c-0.862,14.546-13.35,25.635-27.895,24.773
	c-6.464-0.387-12.558-3.131-17.131-7.713c-24.035-23.982-62.94-23.982-86.975,0L70.328,354.139
	c-24.043,24.043-24.043,63.019,0,87.063c24.043,24.043,63.019,24.043,87.063,0l66.836-66.396
	c18.934,7.695,39.187,11.608,59.625,11.52h3.518l-92.339,92.251C173.651,500.027,144.595,512.057,114.308,511.996z"/>
<path style="fill:#464F5D;" d="M283.86,342.355h-6.332c-3.887-0.176-7.765-0.554-11.608-1.143c-3.254-0.528-6.508-1.231-9.762-2.023
	l-4.749-1.319c-1.759-0.528-3.43-1.055-5.013-1.671s-3.694-1.319-5.277-1.935l-5.189-2.199
	c-12.171-5.628-23.243-13.367-32.715-22.865c-5.347-5.356-8.135-12.76-7.651-20.315c0.862-14.546,13.35-25.635,27.895-24.773
	c6.464,0.387,12.558,3.131,17.131,7.713c24.035,23.982,62.94,23.982,86.975,0l29.461-29.373l0,0l82.666-82.666
	c24.167-24.167,24.167-63.336,0-87.503c-24.167-24.167-63.336-24.167-87.503,0l-66.484,66.836
	c-18.899-7.713-39.126-11.661-59.537-11.608h-3.43l92.251-92.164c43.619-45.651,115.987-47.304,161.638-3.685
	c45.651,43.619,47.304,115.987,3.685,161.638c-1.196,1.258-2.427,2.489-3.685,3.685L364.679,308.937
	c-14.554,14.598-32.785,24.993-52.765,30.076h-0.616l-4.925,0.967l-2.814,0.528l-5.54,0.791h-2.814l-5.716,0.528h-5.54
	L283.86,342.355z"/>
<g>
</g>
<g>
</g>
<g>
</g>
<g>
</g>
<g>
</g>
<g>
</g>
<g>
</g>
<g>
</g>
<g>
</g>
<g>
</g>
<g>
</g>
<g>
</g>
<g>
</g>
<g>
</g>
<g>
</g>
</svg>
