<svg height="640pt" viewBox="0 -52 640 640" width="640pt" xmlns="http://www.w3.org/2000/svg">
    <path d="m320.964844 59.28125-61.492188-59.28125h-211.214844l7.855469 219.214844h532.734375v-159.933594zm0 0" fill="#00efd1"/>
    <path d="m536.460938 219.214844v.550781h-432.921876v-105.332031h432.921876zm0 0" fill="#fedb41"/>
    <path d="m640 205.980469-58.042969 329.097656h-523.222656l-58.734375-329.097656zm0 0" fill="#00acea"/>
    <g fill="#083863">
        <path d="m339.300781 381.488281c19.300781 0 35.019531-15.71875 35.019531-35.019531s-15.71875-35.019531-35.019531-35.019531-35.019531 15.71875-35.019531 35.019531 15.71875 35.019531 35.019531 35.019531zm0-42.460937c4.136719 0 7.445313 3.304687 7.445313 7.441406s-3.308594 7.445312-7.445313 7.445312-7.445312-3.308593-7.445312-7.445312 3.308593-7.441406 7.445312-7.441406zm0 0"/>
        <path d="m439.945312 367.011719v-63.144531c0-15.167969-12.40625-27.988282-27.574218-27.988282h-184.746094c-15.164062 0-27.578125 12.820313-27.578125 27.988282v133.734374c0 15.167969 12.414063 27.027344 27.578125 27.027344h184.746094c15.167968 0 27.574218-11.859375 27.574218-27.027344zm-27.574218-63.695313v55.011719l-78.445313 40.808594-45.636719-32.671875c-3.996093-2.894532-9.238281-3.449219-13.789062-1.382813l-46.875 21.371094v-83.136719zm-184.746094 113.46875 51.011719-23.578125 61.488281 43.84375h-112.5zm159.792969 20.265625-28.398438-20.128906 53.351563-27.433594v47.5625zm0 0"/>
    </g>
</svg>