<?xml version="1.0" encoding="iso-8859-1"?>
<!-- Generator: Adobe Illustrator 19.0.0, SVG Export Plug-In . SVG Version: 6.00 Build 0)  -->
<svg version="1.1" id="Capa_1" xmlns="http://www.w3.org/2000/svg" xmlns:xlink="http://www.w3.org/1999/xlink" x="0px" y="0px"
     viewBox="0 0 512 512" style="enable-background:new 0 0 512 512;" xml:space="preserve">
<g>
	<path style="fill:#0000FF;" d="M405.065,512c-8.416,0.021-16.064-4.907-19.52-12.587l-172.48-383.467L40.478,499.413
		c-5.493,10.421-18.4,14.421-28.821,8.928c-9.525-5.024-13.813-16.352-10.005-26.421l192-426.667
		c4.821-10.752,17.44-15.563,28.192-10.741c4.779,2.144,8.597,5.963,10.741,10.741l192,426.667
		c4.832,10.741,0.032,23.371-10.709,28.203C411.102,511.371,408.094,512.011,405.065,512z"/>
    <rect x="74.398" y="341.333" style="fill:#0000FF;" width="288" height="42.667"/>
</g>
    <path style="fill:#CCCCFF;" d="M490.398,202.667h-53.333c-35.349,0-64-28.651-64-64s28.651-64,64-64h32V53.333
	c0-5.888-4.779-10.667-10.667-10.667h-53.333c-11.787,0-21.333-9.547-21.333-21.333S393.278,0,405.065,0h53.333
	c29.451,0,53.333,23.883,53.333,53.333v128C511.732,193.12,502.174,202.667,490.398,202.667z M437.065,117.333
	c-11.787,0-21.333,9.547-21.333,21.333S425.278,160,437.065,160h32v-42.667H437.065z"/>
    <g>
</g>
    <g>
</g>
    <g>
</g>
    <g>
</g>
    <g>
</g>
    <g>
</g>
    <g>
</g>
    <g>
</g>
    <g>
</g>
    <g>
</g>
    <g>
</g>
    <g>
</g>
    <g>
</g>
    <g>
</g>
    <g>
</g>
</svg>
