<svg id="Capa_1" data-name="Capa 1" xmlns="http://www.w3.org/2000/svg" viewBox="0 0 420.57 512"><defs><style>.cls-1{fill:#0074dd;}.cls-2{fill:#bcbbbb;}</style></defs><title>medal</title><path class="cls-1" d="M109.09,375.65,45.72,457.14,118.86,448l18.28,64,64-82.29.3-.37A280.56,280.56,0,0,0,160,394.89,283,283,0,0,0,109.09,375.65Z" transform="translate(-45.72)"/><path class="cls-1" d="M402.91,375.65A284.34,284.34,0,0,0,352,394.85a279.86,279.86,0,0,0-41.43,34.45L374.86,512l18.28-64,73.15,9.14Z" transform="translate(-45.72)"/><path class="cls-2" d="M454,114.28c-18.46-31.91-70.06-33.54-102-52C321.07,44.35,294.31,0,256,0s-65.07,44.36-96,62.25c-31.92,18.47-83.51,20.12-102,52-17.9,30.93,6,76,6,114.31S40.13,312,58,342.86c18.46,31.91,70.06,33.54,102,52,30.93,17.93,57.69,62.28,96,62.28s65.07-44.36,96-62.25c31.92-18.47,83.51-20.12,102-52,17.9-30.93-6-76-6-114.31S471.87,145.19,454,114.28ZM256,384A155.43,155.43,0,1,1,411.43,228.57,155.43,155.43,0,0,1,256,384Z" transform="translate(-45.72)"/></svg>